<?xml version="1.0" encoding="UTF-8"?>
<svg id="b" data-name="Layer 2" xmlns="http://www.w3.org/2000/svg" viewBox="0 0 220 336.02">
  <g id="c" data-name="Layer 1">
    <path d="M208.75,69.39c-10.09-13.35-26.61-19.99-48.97-19.6-14.27.22-28.72,4.39-43,12.4-21.06-15.1-42.81-22.08-63.15-20.23-21.13,1.92-36.28,10.06-45.04,24.2-20.81,33.57,1.21,90.3,13.05,120.78,2.28,5.89,4.87,12.56,5.12,14.28,13.29,99.45,29.05,134.81,61.32,134.8,1.42,0,2.88-.07,4.37-.2,3.26-.3,6.16-1.87,8.15-4.43,5.39-6.94,3.39-19.44.35-38.38-3.46-21.58-8.19-51.13,2.71-63.92,4.16-4.88,10.61-7.25,19.72-7.25,5.37,0,9.34,1.46,12.14,4.47,8.79,9.45,7.03,33.82,5.75,51.61-1.24,17.14-2.13,29.52,3.79,35.78,2.27,2.4,5.39,3.64,8.74,3.64,34.88-.54,46.43-30.03,49.42-126.18.11-1.6,1.94-7.68,3.56-13.04,8.38-27.83,23.96-79.62,1.97-108.73ZM192.81,173.91c-2.75,9.12-4.07,13.65-4.17,16.76-2.87,92.11-13.04,110.69-33.21,112-1-4.33-.2-15.39.4-23.7,1.56-21.61,3.5-48.5-9.62-62.6-5.63-6.05-13.31-9.12-22.83-9.12-13.45,0-23.83,4.16-30.83,12.38-15.27,17.92-10.14,49.95-6.01,75.7,1.47,9.17,3.43,21.38,2.72,26.07-20.13.5-34.49-20.68-48.04-122.11-.43-3.23-2.25-8-5.98-17.63-10.13-26.11-31.22-80.43-14.25-107.81,6.31-10.17,17.41-15.85,33.96-17.35,1.74-.16,3.46-.23,5.18-.23,14.1,0,27.31,5.11,38.24,11.4-10.46,3.39-19.98,10.54-27.64,20.93-2.39,3.24-1.7,7.81,1.55,10.2,3.25,2.4,7.81,1.7,10.2-1.55,8.2-11.13,18.9-17.26,30.12-17.26s21.92,6.13,30.12,17.26c1.43,1.94,3.64,2.97,5.88,2.97,1.5,0,3.02-.46,4.32-1.42,3.24-2.39,3.94-6.96,1.55-10.2-6.04-8.19-13.23-14.35-21.12-18.26,8.98-3.79,17.9-5.81,26.66-5.95,17.77-.24,29.87,4.24,37.09,13.8,17.53,23.2,2.79,72.19-4.3,95.73ZM117.55,27.73c.5,0,.95-.31,1.14-.78.63-1.64,6.19-16.13,6.19-19.63,0-4.04-3.29-7.33-7.33-7.33s-7.33,3.29-7.33,7.33c0,3.5,5.56,17.99,6.19,19.63.18.47.63.78,1.14.78ZM103.65,33.02c.22.18.49.27.76.27.21,0,.42-.05.61-.16.43-.25.67-.74.59-1.24-.22-1.4-2.17-13.72-3.6-16.18-.82-1.41-2.13-2.43-3.71-2.85-1.58-.42-3.23-.2-4.64.61-1.41.82-2.43,2.13-2.85,3.71-.42,1.58-.21,3.22.61,4.64,1.42,2.47,11.12,10.32,12.22,11.21ZM130.69,33.29c.27,0,.54-.09.76-.27,1.1-.89,10.79-8.74,12.21-11.2.82-1.41,1.04-3.06.61-4.64s-1.43-2.9-2.85-3.71c-1.41-.81-3.06-1.04-4.64-.61-1.58.42-2.9,1.43-3.71,2.85-1.43,2.47-3.38,14.79-3.6,16.18-.08.5.16.99.59,1.24.19.11.4.16.61.16Z"/>
  </g>
</svg>